<svg width="149" height="35" viewBox="0 0 149 35" fill="none" xmlns="http://www.w3.org/2000/svg">
<path d="M46 30.8908L47.5227 27.4363H48.1591L46.2727 31.7999H45.7273L43.875 27.4363H44.5L46 30.8908ZM44.2841 27.4363V31.7999H43.6136V27.4363H44.2841ZM47.7159 31.7999V27.4363H48.3864V31.7999H47.7159ZM51.7072 31.8908C51.2867 31.8908 50.924 31.798 50.6191 31.6124C50.3161 31.4249 50.0822 31.1636 49.9174 30.8283C49.7545 30.4912 49.6731 30.0992 49.6731 29.6522C49.6731 29.2052 49.7545 28.8113 49.9174 28.4704C50.0822 28.1276 50.3113 27.8605 50.6049 27.6692C50.9004 27.4761 51.2451 27.3795 51.639 27.3795C51.8663 27.3795 52.0907 27.4174 52.3123 27.4931C52.5339 27.5689 52.7356 27.692 52.9174 27.8624C53.0992 28.031 53.2441 28.2545 53.3521 28.5329C53.46 28.8113 53.514 29.1541 53.514 29.5613V29.8454H50.1504V29.2658H52.8322C52.8322 29.0196 52.7829 28.7999 52.6845 28.6067C52.5879 28.4136 52.4496 28.2611 52.2697 28.1494C52.0917 28.0376 51.8814 27.9817 51.639 27.9817C51.372 27.9817 51.1409 28.048 50.9458 28.1806C50.7526 28.3113 50.604 28.4817 50.4998 28.692C50.3956 28.9022 50.3435 29.1276 50.3435 29.3681V29.7545C50.3435 30.084 50.4004 30.3634 50.514 30.5925C50.6295 30.8198 50.7896 30.9931 50.9941 31.1124C51.1987 31.2299 51.4363 31.2886 51.7072 31.2886C51.8833 31.2886 52.0424 31.2639 52.1845 31.2147C52.3284 31.1636 52.4524 31.0878 52.5566 30.9874C52.6608 30.8852 52.7413 30.7583 52.7981 30.6067L53.4458 30.7886C53.3776 31.0083 53.2631 31.2014 53.1021 31.3681C52.9411 31.5329 52.7422 31.6617 52.5055 31.7545C52.2687 31.8454 52.0026 31.8908 51.7072 31.8908ZM54.332 33.0499V31.1749H54.6956C54.7846 31.0821 54.8613 30.9817 54.9257 30.8738C54.9901 30.7658 55.046 30.638 55.0933 30.4903C55.1426 30.3406 55.1842 30.1588 55.2183 29.9448C55.2524 29.7289 55.2827 29.4685 55.3092 29.1636L55.457 27.4363H58.2297V31.1749H58.9002V33.0499H58.2297V31.7999H55.0024V33.0499H54.332ZM55.457 31.1749H57.5592V28.0613H56.082L55.9683 29.1636C55.921 29.62 55.8623 30.0187 55.7922 30.3596C55.7221 30.7005 55.6104 30.9723 55.457 31.1749ZM60.7245 30.8113L62.8268 27.4363H63.5995V31.7999H62.9291V28.4249L60.8382 31.7999H60.0541V27.4363H60.7245V30.8113ZM68.4551 27.4363V31.7999H67.7847V27.4363H68.4551ZM68.1938 29.5158V30.1408C68.0423 30.1977 67.8917 30.2478 67.7421 30.2914C67.5925 30.3331 67.4353 30.3662 67.2705 30.3908C67.1057 30.4136 66.9248 30.4249 66.7279 30.4249C66.2336 30.4249 65.8368 30.2914 65.5375 30.0244C65.2402 29.7573 65.0915 29.3567 65.0915 28.8227V27.4249H65.762V28.8227C65.762 29.0461 65.8046 29.2299 65.8898 29.3738C65.975 29.5177 66.0906 29.6247 66.2364 29.6948C66.3822 29.7649 66.5461 29.7999 66.7279 29.7999C67.012 29.7999 67.2686 29.7744 67.4978 29.7232C67.7288 29.6702 67.9608 29.6011 68.1938 29.5158ZM72.8697 29.3113V29.9363H70.4606V29.3113H72.8697ZM70.6197 27.4363V31.7999H69.9493V27.4363H70.6197ZM73.3811 27.4363V31.7999H72.7106V27.4363H73.3811ZM75.54 30.8113L77.6422 27.4363H78.415V31.7999H77.7445V28.4249L75.6536 31.7999H74.8695V27.4363H75.54V30.8113ZM80.5774 30.8113L82.6797 27.4363H83.4524V31.7999H82.7819V28.4249L80.691 31.7999H79.9069V27.4363H80.5774V30.8113ZM82.2365 25.9817H82.8615C82.8615 26.2886 82.7554 26.5395 82.5433 26.7346C82.3312 26.9297 82.0433 27.0272 81.6797 27.0272C81.3217 27.0272 81.0367 26.9297 80.8246 26.7346C80.6143 26.5395 80.5092 26.2886 80.5092 25.9817H81.1342C81.1342 26.1295 81.1749 26.2592 81.2564 26.3709C81.3397 26.4827 81.4808 26.5386 81.6797 26.5386C81.8785 26.5386 82.0206 26.4827 82.1058 26.3709C82.1929 26.2592 82.2365 26.1295 82.2365 25.9817ZM89.2311 31.8908C88.8372 31.8908 88.4915 31.7971 88.1942 31.6096C87.8987 31.4221 87.6677 31.1598 87.501 30.8227C87.3362 30.4855 87.2538 30.0916 87.2538 29.6408C87.2538 29.1863 87.3362 28.7895 87.501 28.4505C87.6677 28.1115 87.8987 27.8482 88.1942 27.6607C88.4915 27.4732 88.8372 27.3795 89.2311 27.3795C89.6251 27.3795 89.9697 27.4732 90.2652 27.6607C90.5626 27.8482 90.7936 28.1115 90.9584 28.4505C91.1251 28.7895 91.2084 29.1863 91.2084 29.6408C91.2084 30.0916 91.1251 30.4855 90.9584 30.8227C90.7936 31.1598 90.5626 31.4221 90.2652 31.6096C89.9697 31.7971 89.6251 31.8908 89.2311 31.8908ZM89.2311 31.2886C89.5304 31.2886 89.7766 31.2119 89.9697 31.0584C90.1629 30.905 90.3059 30.7033 90.3987 30.4533C90.4915 30.2033 90.5379 29.9325 90.5379 29.6408C90.5379 29.3492 90.4915 29.0774 90.3987 28.8255C90.3059 28.5736 90.1629 28.37 89.9697 28.2147C89.7766 28.0594 89.5304 27.9817 89.2311 27.9817C88.9319 27.9817 88.6857 28.0594 88.4925 28.2147C88.2993 28.37 88.1563 28.5736 88.0635 28.8255C87.9707 29.0774 87.9243 29.3492 87.9243 29.6408C87.9243 29.9325 87.9707 30.2033 88.0635 30.4533C88.1563 30.7033 88.2993 30.905 88.4925 31.0584C88.6857 31.2119 88.9319 31.2886 89.2311 31.2886ZM92.0299 33.0499V31.1749H92.3936C92.4826 31.0821 92.5593 30.9817 92.6237 30.8738C92.6881 30.7658 92.7439 30.638 92.7913 30.4903C92.8405 30.3406 92.8822 30.1588 92.9163 29.9448C92.9504 29.7289 92.9807 29.4685 93.0072 29.1636L93.1549 27.4363H95.9276V31.1749H96.5981V33.0499H95.9276V31.7999H92.7004V33.0499H92.0299ZM93.1549 31.1749H95.2572V28.0613H93.7799L93.6663 29.1636C93.6189 29.62 93.5602 30.0187 93.4901 30.3596C93.4201 30.7005 93.3083 30.9723 93.1549 31.1749ZM100.377 31.7999V28.0499H99.2179C98.9566 28.0499 98.7511 28.1105 98.6014 28.2317C98.4518 28.353 98.377 28.5196 98.377 28.7317C98.377 28.9401 98.4442 29.1039 98.5787 29.2232C98.7151 29.3425 98.9016 29.4022 99.1384 29.4022H100.547V30.0272H99.1384C98.8429 30.0272 98.5882 29.9751 98.3742 29.8709C98.1602 29.7668 97.9954 29.6181 97.8799 29.4249C97.7643 29.2299 97.7066 28.9988 97.7066 28.7317C97.7066 28.4628 97.7672 28.2317 97.8884 28.0386C98.0096 27.8454 98.1829 27.6967 98.4083 27.5925C98.6355 27.4884 98.9054 27.4363 99.2179 27.4363H101.013V31.7999H100.377ZM97.4679 31.7999L98.7066 29.6295H99.4338L98.1952 31.7999H97.4679ZM105.201 27.4363V28.0613H103.179V31.7999H102.508V27.4363H105.201ZM108.708 28.0613V27.4363H112.254V28.0613H110.822V31.7999H110.151V28.0613H108.708ZM114.553 31.9022C114.277 31.9022 114.026 31.8501 113.8 31.7459C113.575 31.6399 113.396 31.4874 113.263 31.2886C113.131 31.0878 113.064 30.8454 113.064 30.5613C113.064 30.3113 113.114 30.1086 113.212 29.9533C113.311 29.7961 113.442 29.673 113.607 29.584C113.772 29.495 113.954 29.4287 114.152 29.3852C114.353 29.3397 114.555 29.3037 114.758 29.2772C115.023 29.2431 115.238 29.2175 115.402 29.2005C115.569 29.1816 115.69 29.1503 115.766 29.1067C115.844 29.0632 115.883 28.9874 115.883 28.8795V28.8567C115.883 28.5764 115.806 28.3586 115.652 28.2033C115.501 28.048 115.271 27.9704 114.962 27.9704C114.642 27.9704 114.391 28.0405 114.209 28.1806C114.027 28.3208 113.9 28.4704 113.826 28.6295L113.189 28.4022C113.303 28.137 113.455 27.9306 113.644 27.7829C113.835 27.6333 114.044 27.5291 114.269 27.4704C114.496 27.4098 114.72 27.3795 114.939 27.3795C115.08 27.3795 115.241 27.3965 115.422 27.4306C115.606 27.4628 115.783 27.53 115.954 27.6323C116.126 27.7346 116.269 27.8889 116.383 28.0954C116.496 28.3018 116.553 28.5783 116.553 28.9249V31.7999H115.883V31.209H115.848C115.803 31.3037 115.727 31.405 115.621 31.513C115.515 31.6209 115.374 31.7128 115.198 31.7886C115.022 31.8643 114.807 31.9022 114.553 31.9022ZM114.655 31.2999C114.92 31.2999 115.144 31.2478 115.326 31.1437C115.509 31.0395 115.648 30.905 115.741 30.7403C115.835 30.5755 115.883 30.4022 115.883 30.2204V29.6067C115.854 29.6408 115.792 29.6721 115.695 29.7005C115.6 29.727 115.491 29.7507 115.366 29.7715C115.242 29.7905 115.122 29.8075 115.005 29.8227C114.889 29.8359 114.795 29.8473 114.723 29.8567C114.549 29.8795 114.386 29.9164 114.235 29.9675C114.085 30.0168 113.964 30.0916 113.871 30.192C113.78 30.2905 113.735 30.4249 113.735 30.5954C113.735 30.8283 113.821 31.0045 113.993 31.1238C114.168 31.2412 114.388 31.2999 114.655 31.2999ZM120.555 31.7999V27.4363H122.339C122.809 27.4363 123.182 27.5424 123.458 27.7545C123.735 27.9666 123.873 28.2469 123.873 28.5954C123.873 28.8605 123.794 29.066 123.637 29.2119C123.48 29.3558 123.278 29.4533 123.032 29.5045C123.193 29.5272 123.349 29.584 123.501 29.6749C123.654 29.7658 123.781 29.8908 123.881 30.0499C123.982 30.2071 124.032 30.4003 124.032 30.6295C124.032 30.853 123.975 31.0528 123.862 31.2289C123.748 31.405 123.585 31.5442 123.373 31.6465C123.161 31.7488 122.907 31.7999 122.612 31.7999H120.555ZM121.191 31.1863H122.612C122.843 31.1863 123.024 31.1314 123.154 31.0215C123.285 30.9117 123.35 30.762 123.35 30.5727C123.35 30.3473 123.285 30.1702 123.154 30.0414C123.024 29.9107 122.843 29.8454 122.612 29.8454H121.191V31.1863ZM121.191 29.2658H122.339C122.519 29.2658 122.673 29.2412 122.802 29.192C122.931 29.1408 123.029 29.0689 123.097 28.9761C123.167 28.8814 123.202 28.7696 123.202 28.6408C123.202 28.4571 123.126 28.3132 122.972 28.209C122.819 28.103 122.608 28.0499 122.339 28.0499H121.191V29.2658ZM125.038 30.6863H125.754C125.769 30.8833 125.858 31.0329 126.021 31.1352C126.186 31.2374 126.4 31.2886 126.663 31.2886C126.932 31.2886 127.162 31.2336 127.354 31.1238C127.545 31.012 127.64 30.8321 127.64 30.584C127.64 30.4382 127.605 30.3113 127.533 30.2033C127.461 30.0935 127.359 30.0083 127.229 29.9477C127.098 29.887 126.944 29.8567 126.765 29.8567H126.015V29.2545H126.765C127.033 29.2545 127.23 29.1939 127.356 29.0727C127.485 28.9514 127.55 28.7999 127.55 28.6181C127.55 28.423 127.48 28.2668 127.342 28.1494C127.204 28.03 127.008 27.9704 126.754 27.9704C126.498 27.9704 126.285 28.0281 126.115 28.1437C125.944 28.2573 125.855 28.4041 125.845 28.584H125.14C125.148 28.3492 125.22 28.1418 125.356 27.9619C125.493 27.78 125.678 27.638 125.913 27.5357C126.148 27.4316 126.417 27.3795 126.72 27.3795C127.027 27.3795 127.293 27.4334 127.518 27.5414C127.746 27.6475 127.921 27.7924 128.044 27.9761C128.169 28.1579 128.231 28.3643 128.231 28.5954C128.231 28.8416 128.162 29.0405 128.024 29.192C127.886 29.3435 127.712 29.4514 127.504 29.5158V29.5613C127.669 29.5727 127.812 29.6257 127.933 29.7204C128.056 29.8132 128.152 29.9353 128.22 30.0869C128.288 30.2365 128.322 30.4022 128.322 30.584C128.322 30.8492 128.251 31.0802 128.109 31.2772C127.967 31.4723 127.772 31.6238 127.524 31.7317C127.276 31.8378 126.993 31.8908 126.675 31.8908C126.366 31.8908 126.089 31.8406 125.845 31.7403C125.601 31.638 125.407 31.4969 125.263 31.317C125.121 31.1352 125.046 30.9249 125.038 30.6863ZM129.96 33.4363C129.846 33.4363 129.745 33.4268 129.656 33.4079C129.567 33.3908 129.505 33.3738 129.471 33.3567L129.642 32.7658C129.805 32.8075 129.949 32.8227 130.074 32.8113C130.199 32.7999 130.309 32.7441 130.406 32.6437C130.504 32.5452 130.594 32.3852 130.676 32.1636L130.801 31.8227L129.187 27.4363H129.914L131.119 30.9136H131.164L132.369 27.4363H133.096L131.244 32.4363C131.161 32.6617 131.057 32.8482 130.934 32.9959C130.811 33.1456 130.668 33.2564 130.505 33.3283C130.344 33.4003 130.163 33.4363 129.96 33.4363ZM133.995 28.0613V27.4363H137.541V28.0613H136.109V31.7999H135.438V28.0613H133.995ZM138.533 28.0613V27.4363H142.078V28.0613H140.646V31.7999H139.976V28.0613H138.533ZM145.945 31.7999V28.0499H144.786C144.525 28.0499 144.319 28.1105 144.17 28.2317C144.02 28.353 143.945 28.5196 143.945 28.7317C143.945 28.9401 144.012 29.1039 144.147 29.2232C144.283 29.3425 144.47 29.4022 144.706 29.4022H146.116V30.0272H144.706C144.411 30.0272 144.156 29.9751 143.942 29.8709C143.728 29.7668 143.563 29.6181 143.448 29.4249C143.332 29.2299 143.275 28.9988 143.275 28.7317C143.275 28.4628 143.335 28.2317 143.456 28.0386C143.578 27.8454 143.751 27.6967 143.976 27.5925C144.204 27.4884 144.473 27.4363 144.786 27.4363H146.581V31.7999H145.945ZM143.036 31.7999L144.275 29.6295H145.002L143.763 31.7999H143.036Z" fill="white"/>
<path d="M43.7614 8.1545H45.8636L50.8068 20.2284H50.9773L55.9205 8.1545H58.0227V22.7H56.375V11.6488H56.233L51.6875 22.7H50.0966L45.5511 11.6488H45.4091V22.7H43.7614V8.1545ZM65.9009 22.9272C64.8498 22.9272 63.9431 22.6952 63.1808 22.2312C62.4232 21.7625 61.8384 21.109 61.4265 20.271C61.0193 19.4282 60.8157 18.4481 60.8157 17.3306C60.8157 16.2132 61.0193 15.2284 61.4265 14.3761C61.8384 13.5191 62.4113 12.8515 63.1452 12.3732C63.8839 11.8903 64.7456 11.6488 65.7305 11.6488C66.2987 11.6488 66.8597 11.7435 67.4137 11.9329C67.9677 12.1223 68.4719 12.4301 68.9265 12.8562C69.381 13.2776 69.7433 13.8363 70.0131 14.5323C70.283 15.2284 70.418 16.0854 70.418 17.1034V17.8136H62.0089V16.3647H68.7134C68.7134 15.7492 68.5903 15.2 68.3441 14.717C68.1026 14.234 67.757 13.8529 67.3072 13.5735C66.8621 13.2942 66.3365 13.1545 65.7305 13.1545C65.0629 13.1545 64.4852 13.3202 63.9975 13.6517C63.5146 13.9784 63.1429 14.4045 62.8825 14.9301C62.622 15.4556 62.4918 16.0191 62.4918 16.6204V17.5863C62.4918 18.4102 62.6339 19.1086 62.918 19.6815C63.2068 20.2497 63.6069 20.6829 64.1183 20.9812C64.6296 21.2748 65.2238 21.4215 65.9009 21.4215C66.3413 21.4215 66.739 21.36 67.0941 21.2369C67.454 21.109 67.7641 20.9196 68.0245 20.6687C68.2849 20.413 68.4862 20.0958 68.6282 19.717L70.2475 20.1715C70.0771 20.7208 69.7906 21.2037 69.3881 21.6204C68.9857 22.0323 68.4885 22.3543 67.8967 22.5863C67.3048 22.8136 66.6396 22.9272 65.9009 22.9272ZM77.087 22.9272C76.1779 22.9272 75.3754 22.6976 74.6793 22.2383C73.9833 21.7743 73.4388 21.1209 73.0458 20.2781C72.6528 19.4305 72.4563 18.4291 72.4563 17.2738C72.4563 16.128 72.6528 15.1337 73.0458 14.2909C73.4388 13.4481 73.9857 12.797 74.6864 12.3377C75.3872 11.8785 76.1969 11.6488 77.1154 11.6488C77.8256 11.6488 78.3867 11.7672 78.7987 12.0039C79.2153 12.2359 79.5326 12.5011 79.7504 12.7994C79.9729 13.0929 80.1457 13.3344 80.2688 13.5238H80.4109V8.1545H82.087V22.7H80.4677V21.0238H80.2688C80.1457 21.2227 79.9705 21.4736 79.7433 21.7767C79.516 22.075 79.1916 22.3425 78.7702 22.5792C78.3488 22.8112 77.7878 22.9272 77.087 22.9272ZM77.3143 21.4215C77.9866 21.4215 78.5548 21.2464 79.0188 20.896C79.4828 20.5409 79.8356 20.0508 80.0771 19.4258C80.3185 18.7961 80.4393 18.0693 80.4393 17.2454C80.4393 16.431 80.3209 15.7184 80.0842 15.1076C79.8474 14.4921 79.497 14.0139 79.033 13.673C78.569 13.3273 77.9961 13.1545 77.3143 13.1545C76.604 13.1545 76.0122 13.3368 75.5387 13.7014C75.07 14.0612 74.7172 14.5513 74.4805 15.1715C74.2485 15.7871 74.1325 16.4784 74.1325 17.2454C74.1325 18.0219 74.2508 18.7274 74.4876 19.3619C74.729 19.9916 75.0842 20.4935 75.5529 20.8676C76.0264 21.2369 76.6135 21.4215 77.3143 21.4215Z" fill="#FF454E"/>
<path d="M91.2418 22.7V8.1545H99.9634V9.717H93.0032V14.6318H99.31V16.1943H93.0032V22.7H91.2418ZM106.384 22.9272C105.399 22.9272 104.535 22.6928 103.792 22.2241C103.053 21.7553 102.475 21.0996 102.059 20.2568C101.647 19.414 101.441 18.4291 101.441 17.3022C101.441 16.1659 101.647 15.1739 102.059 14.3264C102.475 13.4788 103.053 12.8207 103.792 12.3519C104.535 11.8832 105.399 11.6488 106.384 11.6488C107.369 11.6488 108.23 11.8832 108.969 12.3519C109.712 12.8207 110.29 13.4788 110.702 14.3264C111.119 15.1739 111.327 16.1659 111.327 17.3022C111.327 18.4291 111.119 19.414 110.702 20.2568C110.29 21.0996 109.712 21.7553 108.969 22.2241C108.23 22.6928 107.369 22.9272 106.384 22.9272ZM106.384 21.4215C107.132 21.4215 107.748 21.2298 108.23 20.8463C108.713 20.4627 109.071 19.9585 109.303 19.3335C109.535 18.7085 109.651 18.0314 109.651 17.3022C109.651 16.5731 109.535 15.8936 109.303 15.2639C109.071 14.6341 108.713 14.1251 108.23 13.7369C107.748 13.3486 107.132 13.1545 106.384 13.1545C105.636 13.1545 105.02 13.3486 104.537 13.7369C104.054 14.1251 103.697 14.6341 103.465 15.2639C103.233 15.8936 103.117 16.5731 103.117 17.3022C103.117 18.0314 103.233 18.7085 103.465 19.3335C103.697 19.9585 104.054 20.4627 104.537 20.8463C105.02 21.2298 105.636 21.4215 106.384 21.4215ZM113.886 22.7V11.7909H115.505V13.4386H115.619C115.817 12.8988 116.177 12.4608 116.698 12.1247C117.219 11.7885 117.806 11.6204 118.46 11.6204C118.583 11.6204 118.737 11.6228 118.921 11.6275C119.106 11.6322 119.246 11.6393 119.34 11.6488V13.3534C119.283 13.3392 119.153 13.3178 118.95 13.2894C118.751 13.2563 118.54 13.2397 118.317 13.2397C117.787 13.2397 117.314 13.351 116.897 13.5735C116.485 13.7913 116.158 14.0944 115.917 14.4826C115.68 14.8661 115.562 15.3041 115.562 15.7965V22.7H113.886ZM121.327 22.7V11.7909H122.946V13.4954H123.088C123.316 12.913 123.683 12.4608 124.189 12.1389C124.696 11.8122 125.304 11.6488 126.015 11.6488C126.734 11.6488 127.333 11.8122 127.811 12.1389C128.294 12.4608 128.671 12.913 128.941 13.4954H129.054C129.334 12.932 129.753 12.4845 130.311 12.1531C130.87 11.8169 131.54 11.6488 132.321 11.6488C133.297 11.6488 134.095 11.9542 134.715 12.565C135.335 13.1711 135.645 14.1157 135.645 15.3988V22.7H133.969V15.3988C133.969 14.5939 133.749 14.0186 133.309 13.673C132.868 13.3273 132.35 13.1545 131.753 13.1545C130.986 13.1545 130.392 13.3865 129.971 13.8505C129.549 14.3098 129.338 14.8922 129.338 15.5977V22.7H127.634V15.2284C127.634 14.6081 127.433 14.1086 127.03 13.7298C126.628 13.3463 126.109 13.1545 125.475 13.1545C125.039 13.1545 124.632 13.2705 124.253 13.5025C123.879 13.7345 123.576 14.0565 123.344 14.4684C123.117 14.8756 123.003 15.3467 123.003 15.8818V22.7H121.327ZM141.92 22.9556C141.229 22.9556 140.601 22.8254 140.038 22.565C139.475 22.2999 139.027 21.9187 138.696 21.4215C138.364 20.9196 138.199 20.3136 138.199 19.6034C138.199 18.9784 138.322 18.4717 138.568 18.0835C138.814 17.6905 139.143 17.3827 139.555 17.1602C139.967 16.9376 140.422 16.7719 140.919 16.663C141.421 16.5494 141.925 16.4594 142.431 16.3931C143.094 16.3079 143.632 16.244 144.044 16.2014C144.46 16.154 144.763 16.0759 144.953 15.967C145.147 15.8581 145.244 15.6687 145.244 15.3988V15.342C145.244 14.6412 145.052 14.0967 144.669 13.7085C144.29 13.3202 143.715 13.1261 142.943 13.1261C142.143 13.1261 141.515 13.3013 141.061 13.6517C140.606 14.002 140.287 14.3761 140.102 14.7738L138.511 14.2056C138.795 13.5428 139.174 13.0267 139.647 12.6573C140.126 12.2833 140.646 12.0229 141.21 11.8761C141.778 11.7246 142.337 11.6488 142.886 11.6488C143.236 11.6488 143.639 11.6914 144.093 11.7767C144.553 11.8571 144.995 12.0252 145.422 12.2809C145.852 12.5366 146.21 12.9225 146.494 13.4386C146.778 13.9547 146.92 14.646 146.92 15.5125V22.7H145.244V21.2227H145.159C145.045 21.4594 144.856 21.7127 144.591 21.9826C144.325 22.2525 143.973 22.4821 143.532 22.6715C143.092 22.8609 142.555 22.9556 141.92 22.9556ZM142.176 21.45C142.839 21.45 143.397 21.3197 143.852 21.0593C144.311 20.7989 144.657 20.4627 144.889 20.0508C145.126 19.6389 145.244 19.2056 145.244 18.7511V17.217C145.173 17.3022 145.017 17.3803 144.775 17.4514C144.538 17.5177 144.264 17.5768 143.951 17.6289C143.644 17.6763 143.343 17.7189 143.049 17.7568C142.761 17.7899 142.526 17.8183 142.346 17.842C141.911 17.8988 141.503 17.9911 141.125 18.119C140.751 18.2421 140.448 18.4291 140.216 18.6801C139.988 18.9263 139.875 19.2625 139.875 19.6886C139.875 20.271 140.09 20.7113 140.521 21.0096C140.957 21.3032 141.508 21.45 142.176 21.45Z" fill="white"/>
<path d="M18.1089 14.3082C18.0953 10.9605 16.822 6.90014 11.2939 6.71669C5.20435 6.20553 1.88257 10.9901 1.26684 13.8692C0.147848 18.6132 2.86099 22.0322 3.64236 22.8004C6.67726 25.5288 9.40082 27.6612 10.4369 28.5469C10.7691 28.8258 13.8608 31.3218 14.3971 31.7826C14.3482 31.7754 15.1159 32.4243 15.7348 32.9557C16.7672 33.9216 17.6041 33.7222 18.0162 32.9043C18.0289 32.8774 18.0395 32.8496 18.0479 32.8211C18.2334 32.2283 18.0743 25.7988 18.1336 25.5467" stroke="white" stroke-miterlimit="10"/>
<path d="M18.0976 14.1656V14.4671C18.2975 14.4671 18.4925 14.5386 18.6327 14.6631C18.7872 14.8004 18.8743 14.9985 18.8843 15.2367C18.848 15.8095 18.4464 16.0127 18.1129 16.0127C17.9131 16.0127 17.718 15.9412 17.5779 15.8167C17.4233 15.6794 17.3363 15.4813 17.3264 15.2431C17.3624 14.6703 17.7633 14.4671 18.0976 14.4671V14.1656ZM18.0976 14.1656C17.5791 14.1656 17.0626 14.5148 17.0239 15.2398C17.0461 15.9464 17.5806 16.3142 18.1129 16.3142C18.6315 16.3142 19.1481 15.9651 19.1866 15.2398C19.1645 14.5335 18.63 14.1656 18.0976 14.1656Z" fill="white"/>
<path d="M18.6151 15.2398C18.5714 15.9465 17.6095 15.8821 17.5942 15.2398C17.6379 14.5333 18.6 14.5976 18.6151 15.2398Z" fill="#FF454E"/>
<path d="M18.5859 9.47278C19.0288 9.00922 19.5215 8.59575 20.0551 8.23987C20.5962 7.87807 21.173 7.57243 21.7764 7.32773C23.6392 6.57449 25.6866 6.40109 27.6499 6.83028C27.9797 6.90306 28.3056 6.99287 28.6262 7.09936C28.7068 7.12529 28.7864 7.15408 28.8661 7.18257C28.9458 7.21106 29.0248 7.24181 29.104 7.27166C29.1438 7.28673 29.1829 7.30316 29.2221 7.31929L29.3396 7.36798C29.4177 7.40129 29.4951 7.43611 29.5729 7.47033C30.194 7.75354 30.782 8.10417 31.3263 8.51588C31.5988 8.72257 31.8592 8.94468 32.1062 9.1811C32.3534 9.41816 32.5873 9.66877 32.8066 9.93179C33.0253 10.1952 33.2292 10.4704 33.4175 10.7562C33.9761 11.612 34.3941 12.5514 34.6556 13.5389C35.0003 14.8409 35.081 16.1986 34.8932 17.5322C34.8479 17.8622 34.7837 18.1891 34.7061 18.512C34.6285 18.8349 34.534 19.1525 34.4242 19.4644C34.2073 20.0858 33.9282 20.6838 33.591 21.2493C33.2574 21.8078 32.8674 22.3308 32.4273 22.8102C31.9932 23.2821 31.5088 23.7053 30.9827 24.0723C31.3912 23.5854 31.7654 23.0822 32.0915 22.555C32.4146 22.0327 32.6942 21.4847 32.9276 20.9168C33.384 19.8027 33.6485 18.6197 33.71 17.4176C33.7681 16.2319 33.6241 15.0466 33.2771 13.9331C32.9301 12.8195 32.3804 11.7794 31.6448 10.8944C31.2768 10.452 30.8639 10.0487 30.4128 9.69106C29.9583 9.33243 29.4693 9.01967 28.9529 8.75736C27.9156 8.23203 26.7679 7.90311 25.5858 7.78146C24.9912 7.72012 24.3924 7.71003 23.796 7.75132C23.1919 7.79338 22.5925 7.88616 22.004 8.02868C21.4063 8.17354 20.8216 8.3674 20.2559 8.60828C19.6788 8.85517 19.1206 9.14411 18.5859 9.47278Z" fill="#FF454E"/>
<path d="M27.4113 16.7901H22.1966V11.6672C22.1966 11.5473 22.1489 11.4322 22.0639 11.3474C21.979 11.2626 21.8637 11.215 21.7436 11.215H18.1289C18.1691 11.3517 18.2068 11.4907 18.2412 11.6324C18.2799 11.7918 18.3151 11.9541 18.3469 12.1194H21.2912V17.2424C21.2912 17.3623 21.339 17.4773 21.4239 17.5621C21.5089 17.6469 21.6241 17.6946 21.7442 17.6946H26.9584V23.8278H21.7436C21.6235 23.8278 21.5083 23.8755 21.4233 23.9603C21.3384 24.0451 21.2906 24.1601 21.2906 24.28V29.403H18.586C18.5878 29.7091 18.5888 30.0138 18.589 30.3074H21.7436C21.8637 30.3074 21.979 30.2598 22.0639 30.175C22.1489 30.0902 22.1966 29.9752 22.1966 29.8552V24.7323H27.4113C27.5315 24.7323 27.6467 24.6846 27.7316 24.5998C27.8166 24.515 27.8643 24.4 27.8643 24.28V17.2424C27.8643 17.1224 27.8166 17.0074 27.7316 16.9226C27.6467 16.8378 27.5315 16.7901 27.4113 16.7901Z" fill="white"/>
<path d="M15.0419 24.28C15.0419 24.1601 14.9942 24.0451 14.9092 23.9603C14.8243 23.8755 14.7091 23.8278 14.5889 23.8278H9.3742V17.6946H14.5889C14.7091 17.6946 14.8243 17.6469 14.9092 17.5621C14.9942 17.4773 15.0419 17.3623 15.0419 17.2424V12.1194H17.4452C17.3799 11.8135 17.297 11.5115 17.1971 11.215H14.5889C14.4688 11.215 14.3536 11.2626 14.2686 11.3474C14.1837 11.4322 14.136 11.5473 14.136 11.6672V16.7901H8.92123C8.8011 16.7901 8.68588 16.8378 8.60093 16.9226C8.51599 17.0074 8.46826 17.1224 8.46826 17.2424V24.28C8.46826 24.4 8.51599 24.515 8.60093 24.5998C8.68588 24.6846 8.8011 24.7323 8.92123 24.7323H14.136V29.8552C14.136 29.9752 14.1837 30.0902 14.2686 30.175C14.3536 30.2598 14.4688 30.3074 14.5889 30.3074H17.7129C17.7129 30.0142 17.7117 29.7094 17.7099 29.403H15.0419V24.28Z" fill="white"/>
<path d="M15.4331 22.3258C15.3002 21.9022 15.1581 21.5132 15.0326 21.1699C14.7901 20.5054 14.5984 19.9807 14.5892 19.5507C14.5794 19.0671 14.808 18.74 15.3088 18.5211L15.3274 18.5129H15.3477C16.064 18.4891 16.0896 18.4906 16.1657 18.4955C16.2261 18.4992 16.3266 18.5054 16.979 18.4982L16.9813 18.7092C16.3212 18.7166 16.2197 18.7103 16.1525 18.706C16.0853 18.7018 16.0619 18.7003 15.3752 18.7232C14.9647 18.9076 14.7926 19.155 14.8004 19.547C14.8084 19.9421 14.9947 20.4524 15.2307 21.0982C15.3568 21.4437 15.4998 21.835 15.6342 22.2634L15.4331 22.3258Z" fill="white"/>
<path d="M20.8316 22.3258L20.6298 22.2626C20.7642 21.8344 20.9072 21.4429 21.0333 21.0976C21.2691 20.4518 21.4561 19.9415 21.4635 19.5464C21.4715 19.1545 21.2993 18.907 20.8886 18.7226C20.2025 18.6997 20.1775 18.7014 20.1115 18.7054C20.0455 18.7095 19.9428 18.7158 19.2827 18.7086L19.285 18.4976C19.9374 18.5048 20.0381 18.4985 20.0984 18.4948C20.1739 18.49 20.2 18.4885 20.9163 18.5123H20.9367L20.9552 18.5205C21.4559 18.7392 21.6847 19.0665 21.6749 19.55C21.6661 19.9801 21.4745 20.5048 21.2318 21.1692C21.1065 21.5118 20.9644 21.9015 20.8316 22.3258Z" fill="white"/>
<path d="M18.1096 25.823H18.1035C17.6238 25.8205 17.1632 25.5198 16.6955 24.9034C16.2685 24.3412 15.8316 23.5112 15.3594 22.3662C15.35 22.3433 15.3452 22.3188 15.3452 22.294C15.3453 22.2693 15.3502 22.2448 15.3597 22.2219C15.3693 22.1991 15.3832 22.1783 15.4008 22.1609C15.4183 22.1434 15.4392 22.1296 15.4621 22.1201C15.485 22.1107 15.5096 22.1059 15.5344 22.106C15.5592 22.106 15.5837 22.1109 15.6066 22.1204C15.6295 22.13 15.6502 22.1439 15.6677 22.1614C15.6852 22.179 15.6991 22.1998 15.7085 22.2226C16.6012 24.3879 17.3853 25.4422 18.1055 25.446H18.1091C18.4564 25.446 18.8308 25.1927 19.2215 24.6922C19.642 24.1546 20.0786 23.3458 20.5568 22.2201C20.5659 22.1965 20.5796 22.1749 20.5973 22.1567C20.6149 22.1386 20.6359 22.1241 20.6593 22.1142C20.6826 22.1043 20.7077 22.0992 20.733 22.0992C20.7583 22.0992 20.7834 22.1043 20.8067 22.1142C20.83 22.1241 20.8511 22.1386 20.8687 22.1567C20.8863 22.1749 20.9001 22.1965 20.9092 22.2201C20.9183 22.2437 20.9225 22.2689 20.9216 22.2942C20.9207 22.3194 20.9148 22.3443 20.9041 22.3672C20.4129 23.5237 19.9598 24.3602 19.5188 24.9241C19.0466 25.5287 18.5855 25.823 18.1096 25.823Z" fill="#FF454E"/>
<path d="M17.0681 18.993C16.7374 18.7832 16.4726 18.6075 16.8362 18.3701C17.2038 18.0561 17.4816 18.1431 17.4736 18.3745C17.4857 18.8525 17.5203 19.1668 17.0681 18.993Z" fill="#FF454E"/>
<path d="M19.1531 18.993C19.4838 18.7832 19.7486 18.6075 19.3849 18.3701C19.0174 18.0561 18.7396 18.1431 18.7476 18.3745C18.7355 18.8525 18.7009 19.1668 19.1531 18.993Z" fill="#FF454E"/>
</svg>
